# This file uses centimeters as units for non-parametric coordinates.

mtllib ammo_box.mtl
g default
v 49.806976 25.262562 -31.893044
v 49.806976 30.262562 -31.893044
v 49.806976 25.262562 38.742637
v 49.806976 30.262562 38.742637
v -50.193039 25.262562 38.742637
v -50.193039 30.262562 38.742637
v -50.193054 25.262562 -31.893029
v -50.193054 30.262562 -31.893029
v 38.808746 30.262562 38.742637
v 38.808746 30.262562 -31.893029
v 31.857483 30.262562 38.742637
v 31.857483 30.262562 -31.893029
v -34.725845 30.262562 38.742637
v -34.725830 30.262562 -31.893029
v -28.725189 30.262562 38.742637
v -28.725189 30.262562 -31.893029
v 38.808746 32.762562 -31.893029
v 38.808746 32.762562 38.742637
v 31.857483 32.762562 -31.893029
v 31.857483 32.762562 38.742637
v -28.725189 32.762562 -31.893029
v -28.725189 32.762562 38.742637
v -34.725830 32.762562 -31.893029
v -34.725845 32.762562 38.742637
vt 0.477865 0.661264
vt 0.477865 0.642877
vt 0.737614 0.642877
vt 0.737614 0.661264
vt 0.766676 0.637606
vt 0.746935 0.637607
vt 0.746935 0.593800
vt 0.746935 0.567118
vt 0.746947 0.327116
vt 0.746947 0.304052
vt 0.746932 0.242774
vt 0.766674 0.242774
vt 0.737613 0.219988
vt 0.737613 0.238375
vt 0.477865 0.238374
vt 0.477865 0.219988
vt 0.468728 0.304239
vt 0.468729 0.326602
vt 0.468665 0.567301
vt 0.468664 0.593851
vt 0.468659 0.637986
vt 0.448867 0.637984
vt 0.448905 0.242141
vt 0.468697 0.242142
vt 0.477865 0.602433
vt 0.737614 0.602433
vt 0.529762 0.013341
vt 0.659499 0.013341
vt 0.659499 0.197011
vt 0.529763 0.197011
vt 0.737614 0.593329
vt 0.477865 0.593245
vt 0.477865 0.567673
vt 0.737614 0.567589
vt 0.737614 0.558485
vt 0.477866 0.558485
vt 0.477865 0.335704
vt 0.737613 0.335705
vt 0.737613 0.295252
vt 0.477865 0.295252
vt 0.737614 0.326604
vt 0.477866 0.326449
vt 0.477865 0.304507
vt 0.737613 0.304352
vn 1.000000 0.000000 0.000000
vn 1.000000 0.000000 0.000000
vn 1.000000 0.000000 0.000000
vn 1.000000 0.000000 0.000000
vn 0.000000 0.000000 1.000000
vn 0.000000 0.000000 1.000000
vn 0.000000 0.000000 1.000000
vn 0.000000 0.000000 1.000000
vn 0.000000 0.000000 1.000000
vn 0.000000 0.000000 1.000000
vn 0.000000 0.000000 1.000000
vn 0.000000 0.000000 1.000000
vn -1.000000 0.000000 0.000000
vn -1.000000 0.000000 0.000000
vn -1.000000 0.000000 0.000000
vn -1.000000 0.000000 0.000000
vn -0.000000 0.000001 -1.000000
vn -0.000000 0.000001 -1.000000
vn -0.000000 0.000001 -1.000000
vn -0.000000 0.000001 -1.000000
vn -0.000000 0.000001 -1.000000
vn -0.000000 0.000001 -1.000000
vn -0.000000 0.000001 -1.000000
vn -0.000000 0.000001 -1.000000
vn 0.000000 1.000000 0.000000
vn 0.000000 1.000000 0.000000
vn 0.000000 1.000000 0.000000
vn 0.000000 1.000000 0.000000
vn 0.000000 -1.000000 0.000000
vn 0.000000 -1.000000 0.000000
vn 0.000000 -1.000000 0.000000
vn 0.000000 -1.000000 0.000000
vn 0.000000 1.000000 0.000000
vn 0.000000 1.000000 0.000000
vn 0.000000 1.000000 0.000000
vn 0.000000 1.000000 0.000000
vn 0.000000 1.000000 0.000000
vn 0.000000 1.000000 0.000000
vn 0.000000 1.000000 0.000000
vn 0.000000 1.000000 0.000000
vn 0.000000 1.000000 0.000000
vn 0.000000 1.000000 0.000000
vn 0.000000 1.000000 0.000000
vn 0.000000 1.000000 0.000000
vn 0.000000 1.000000 0.000000
vn 0.000000 1.000000 0.000000
vn 0.000000 1.000000 0.000000
vn 0.000000 1.000000 0.000000
vn 1.000000 0.000000 0.000000
vn 1.000000 0.000000 0.000000
vn 1.000000 0.000000 0.000000
vn 1.000000 0.000000 0.000000
vn 0.000000 0.000000 -1.000000
vn 0.000000 0.000000 -1.000000
vn -1.000000 0.000000 0.000000
vn -1.000000 0.000000 0.000000
vn -1.000000 0.000000 0.000000
vn -1.000000 0.000000 0.000000
vn 0.000000 0.000000 1.000000
vn 0.000000 0.000000 1.000000
vn 1.000000 0.000000 0.000000
vn 1.000000 0.000000 0.000000
vn 1.000000 0.000000 0.000000
vn 1.000000 0.000000 0.000000
vn 0.000000 0.000000 -1.000000
vn 0.000000 0.000000 -1.000000
vn -1.000000 0.000000 -0.000000
vn -1.000000 0.000000 -0.000000
vn -1.000000 0.000000 -0.000000
vn -1.000000 0.000000 -0.000000
vn 0.000000 0.000000 1.000000
vn 0.000000 0.000000 1.000000
s off
g ammo_box ammo_box
usemtl lambert20SG
f 1/1/1 2/2/2 4/3/3 3/4/4
s 1
f 3/5/5 4/6/6 9/7/7 11/8/8 15/9/9 13/10/10 6/11/11 5/12/12
s off
f 5/13/13 6/14/14 8/15/15 7/16/16
s 2
f 14/17/17 16/18/18 12/19/19 10/20/20 2/21/21 1/22/22 7/23/23 8/24/24
s off
f 2/2/25 10/25/26 9/26/27 4/3/28
f 1/27/29 3/28/30 5/29/31 7/30/32
f 18/31/33 17/32/34 19/33/35 20/34/36
f 11/35/37 12/36/38 16/37/39 15/38/40
f 13/39/41 14/40/42 8/15/43 6/14/44
f 22/41/45 21/42/46 23/43/47 24/44/48
f 9/26/49 10/25/50 17/32/51 18/31/52
s 2
f 10/20/20 12/19/19 19/33/53 17/32/54
s off
f 12/36/55 11/35/56 20/34/57 19/33/58
s 1
f 11/8/8 9/7/7 18/31/59 20/34/60
s off
f 15/38/61 16/37/62 21/42/63 22/41/64
s 2
f 16/18/18 14/17/17 23/43/65 21/42/66
s off
f 14/40/67 13/39/68 24/44/69 23/43/70
s 1
f 13/10/10 15/9/9 22/41/71 24/44/72
g default
v 50.004868 -32.762562 39.194733
v 50.004868 -32.762562 -31.304382
v 50.004868 -29.762562 39.194733
v 50.004868 -29.762562 -31.304382
v -50.004868 -29.762562 39.194733
v -50.004852 -29.762562 -31.304382
v -50.004868 -32.762562 39.194733
v -50.004852 -32.762562 -31.304382
v 50.004868 -29.762562 31.863220
v -50.004868 -29.762562 31.863220
v -50.004868 -32.762562 31.863220
v 50.004868 -32.762562 31.863220
v 50.004868 -29.762562 24.967072
v -50.004868 -29.762562 24.967072
v -50.004868 -32.762562 24.967072
v 50.004868 -32.762562 24.967072
v 50.004868 -29.762562 -15.101898
v -50.004883 -29.762562 -15.101898
v -50.004883 -32.762562 -15.101898
v 50.004868 -32.762562 -15.101898
v 50.004868 -29.762562 -23.297424
v -50.004852 -29.762562 -23.297424
v -50.004852 -32.762562 -23.297424
v 50.004868 -32.762562 -23.297424
v 50.004868 -29.762562 36.341766
v -50.004868 -29.762562 36.341766
v -50.004868 -32.762562 36.341766
v 50.004868 -32.762562 36.341766
v 50.004868 -29.762562 -28.522064
v -50.004868 -29.762562 -28.522049
v -50.004868 -32.762562 -28.522049
v 50.004868 -32.762562 -28.522064
v 46.881302 -29.762562 39.194733
v 46.881302 -32.762562 39.194733
v 46.881302 -32.762562 36.341766
v 46.881302 -32.762562 -28.522049
v 46.881302 -32.762562 -31.304382
v 46.881302 -29.762562 -31.304382
v 46.881302 -29.762562 -28.522049
v 46.881302 -29.762562 36.341766
v -46.925598 -29.762562 39.194733
v -46.925598 -32.762562 39.194733
v -46.925598 -32.762562 36.341766
v -46.925613 -32.762562 -28.522049
v -46.925598 -32.762562 -31.304382
v -46.925598 -29.762562 -31.304382
v -46.925613 -29.762562 -28.522049
v -46.925598 -29.762562 36.341766
v 50.004868 25.237446 39.194733
v 50.004868 25.237438 36.341766
v 46.881302 25.237438 36.341766
v 46.881302 25.237438 39.194733
v 50.004868 25.237438 31.863220
v 50.004868 25.237438 24.967072
v 50.004868 25.237438 -15.101898
v 50.004868 25.237438 -23.297424
v 50.004868 25.237438 -28.522064
v 46.881302 25.237438 -28.522049
v 50.004868 25.237438 -31.304382
v 46.881302 25.237438 -31.304382
v -46.925598 25.237438 -31.304382
v -46.925613 25.237438 -28.522049
v -46.925598 25.237438 36.341766
v -46.925598 25.237438 39.194733
v -50.004852 25.237446 -31.304382
v -50.004868 25.237438 -28.522049
v -50.004852 25.237438 -23.297424
v -50.004883 25.237438 -15.101898
v -50.004868 25.237434 24.967072
v -50.004868 25.237434 31.863220
v -50.004868 25.237438 36.341766
v -50.004868 25.237438 39.194733
v -52.004868 -32.762562 31.863220
v -52.004868 -32.762562 24.967072
v -52.004868 25.237434 31.863220
v -52.004868 25.237434 24.967072
v -52.004883 -32.762562 -15.101898
v -52.004852 -32.762562 -23.297424
v -52.004883 25.237438 -15.101898
v -52.004852 25.237438 -23.297424
v 52.004868 -32.762562 31.863220
v 52.004868 -32.762562 24.967072
v 52.004868 25.237438 24.967072
v 52.004868 25.237438 31.863220
v 52.004868 -32.762562 -15.101898
v 52.004868 -32.762562 -23.297424
v 52.004868 25.237438 -23.297424
v 52.004868 25.237438 -15.101898
vt 0.003147 0.666372
vt 0.019334 0.666372
vt 0.019334 0.683394
vt 0.003147 0.683394
vt 0.822751 0.013698
vt 0.826681 0.013698
vt 0.826708 0.018001
vt 0.822751 0.018001
vt 0.895459 0.684928
vt 0.879355 0.684925
vt 0.879358 0.667990
vt 0.895463 0.667993
vt 0.724547 0.206579
vt 0.724547 0.198563
vt 0.733323 0.198563
vt 0.733323 0.206579
vt 0.005991 0.405088
vt 0.019646 0.405088
vt 0.019646 0.418203
vt 0.005991 0.418203
vt 0.428991 0.144168
vt 0.443211 0.144168
vt 0.442984 0.157356
vt 0.429037 0.157356
vt 0.803857 0.667981
vt 0.842786 0.667984
vt 0.842754 0.995393
vt 0.803825 0.995389
vt 0.792567 0.667980
vt 0.792565 0.684915
vt 0.566378 0.684893
vt 0.566379 0.667958
vt 0.106568 0.683394
vt 0.106568 0.666372
vt 0.333914 0.666372
vt 0.333914 0.683394
vt 0.508826 0.667953
vt 0.555089 0.667957
vt 0.555058 0.995365
vt 0.508794 0.995361
vt 0.497535 0.667952
vt 0.497534 0.684886
vt 0.468041 0.684885
vt 0.468042 0.667952
vt 0.403109 0.683394
vt 0.403109 0.666372
vt 0.432753 0.666372
vt 0.432753 0.683394
vt 0.915998 0.018001
vt 0.832850 0.013698
vt 0.842348 0.013698
vt 0.897540 0.013698
vt 0.908829 0.013698
vt 0.916025 0.013698
vt 0.854074 0.684921
vt 0.854076 0.667986
vt 0.733323 0.054016
vt 0.733323 0.166602
vt 0.733323 0.185979
vt 0.724547 0.016308
vt 0.733323 0.016308
vt 0.733323 0.030988
vt 0.044745 0.666372
vt 0.044745 0.683394
vt 0.919858 0.013698
vt 0.919857 0.018001
vt 0.452335 0.684884
vt 0.452336 0.667952
vt 0.724547 0.008490
vt 0.733323 0.008490
vt 0.448539 0.666372
vt 0.448539 0.683394
vt 0.018321 0.144168
vt 0.018367 0.157356
vt 0.460967 0.206579
vt 0.460967 0.198563
vt 0.460967 0.016308
vt 0.460967 0.008490
vt 0.429741 0.405088
vt 0.429741 0.418203
vt 0.991834 0.093683
vt 0.995669 0.093684
vt 0.995643 0.222997
vt 0.991808 0.222996
vt 0.915990 0.222981
vt 0.826716 0.222981
vt 0.826690 0.093667
vt 0.916016 0.093667
vt 0.746939 0.093640
vt 0.750872 0.093641
vt 0.750827 0.222955
vt 0.746894 0.222953
vt 0.004841 0.144168
vt 0.004886 0.157356
vt 0.452314 0.206579
vt 0.452315 0.198563
vt 0.452315 0.185979
vt 0.452315 0.166602
vt 0.452315 0.054016
vt 0.452315 0.030988
vt 0.452315 0.016308
vt 0.452315 0.008490
vt 0.443203 0.405088
vt 0.443203 0.418203
vt 0.915824 0.298559
vt 0.919535 0.298559
vt 0.919535 0.302772
vt 0.915728 0.302772
vt 0.897366 0.302772
vt 0.842541 0.302772
vt 0.833106 0.302772
vt 0.826978 0.302772
vt 0.826883 0.298559
vt 0.908579 0.302772
vt 0.823074 0.298558
vt 0.823074 0.302772
vt 0.019334 0.995456
vt 0.003147 0.995456
vt 0.442757 0.398136
vt 0.429082 0.398136
vt 0.095221 0.666372
vt 0.095221 0.995456
vt 0.056093 0.995456
vt 0.056093 0.666372
vt 0.333914 0.995456
vt 0.106568 0.995456
vt 0.391762 0.666372
vt 0.391762 0.995456
vt 0.345261 0.995456
vt 0.345261 0.666372
vt 0.432753 0.995456
vt 0.403109 0.995456
vt 0.044745 0.995456
vt 0.448540 0.995456
vt 0.019646 0.658646
vt 0.005991 0.658646
vt 0.429741 0.658646
vt 0.018412 0.398136
vt 0.443203 0.658646
vt 0.468011 0.995357
vt 0.452305 0.995355
vt 0.497504 0.995360
vt 0.792536 0.995388
vt 0.566348 0.995366
vt 0.879355 0.684923
vt 0.879325 0.995396
vt 0.854044 0.995394
vt 0.895460 0.684924
vt 0.895431 0.995398
vt 0.004932 0.398136
vt 0.446695 0.185979
vt 0.446695 0.166602
vt 0.842541 0.305508
vt 0.833106 0.305508
vt 0.446695 0.054016
vt 0.446695 0.030988
vt 0.908580 0.305508
vt 0.897366 0.305508
vt 0.738943 0.166602
vt 0.738943 0.185979
vt 0.832850 0.010944
vt 0.842348 0.010943
vt 0.738943 0.030988
vt 0.738943 0.054016
vt 0.897540 0.010943
vt 0.908829 0.010943
vn 1.000000 0.000000 0.000000
vn 1.000000 0.000000 0.000000
vn 1.000000 0.000000 0.000000
vn 1.000000 0.000000 0.000000
vn -0.000001 1.000000 -0.000002
vn -0.000000 1.000000 -0.000000
vn -0.000000 1.000000 -0.000000
vn -0.000000 1.000000 -0.000000
vn -1.000000 0.000000 0.000000
vn -1.000000 0.000000 0.000000
vn -1.000000 0.000000 0.000000
vn -1.000000 0.000000 0.000000
vn 0.000000 -1.000000 0.000000
vn 0.000000 -1.000000 0.000000
vn 0.000000 -1.000000 0.000000
vn 0.000000 -1.000000 0.000000
vn 0.000000 0.000000 -1.000000
vn 0.000000 0.000000 -1.000000
vn 0.000000 0.000000 -1.000000
vn 0.000000 0.000000 -1.000000
vn 0.000000 0.000000 1.000000
vn 0.000000 0.000000 1.000000
vn -0.000001 0.000000 1.000000
vn -0.000000 0.000000 1.000000
vn -1.000000 0.000000 0.000000
vn -1.000000 0.000000 0.000000
vn -1.000000 0.000000 0.000000
vn -1.000000 0.000000 0.000000
vn -1.000000 0.000000 0.000000
vn -1.000000 0.000000 0.000000
vn -1.000000 0.000000 0.000000
vn -1.000000 0.000000 0.000000
vn 1.000000 0.000000 0.000000
vn 1.000000 0.000000 0.000000
vn 1.000000 0.000000 0.000000
vn 1.000000 0.000000 0.000000
vn -1.000000 0.000000 -0.000004
vn -1.000000 0.000000 -0.000004
vn -1.000000 0.000000 -0.000004
vn -1.000000 0.000000 -0.000004
vn -1.000000 0.000000 0.000003
vn -1.000000 0.000000 0.000003
vn -1.000000 0.000000 -0.000000
vn -1.000000 0.000000 0.000000
vn 1.000000 0.000000 0.000000
vn 1.000000 0.000000 0.000000
vn 1.000000 0.000000 0.000000
vn 1.000000 0.000000 0.000000
vn 0.000000 1.000000 0.000000
vn 0.000000 1.000000 0.000000
vn 0.000000 1.000000 0.000000
vn 0.000000 1.000000 0.000000
vn 0.000000 1.000000 0.000000
vn 0.000000 1.000000 0.000000
vn -1.000000 0.000000 0.000000
vn -1.000000 0.000000 0.000000
vn 0.000000 -1.000000 0.000000
vn 0.000000 -1.000000 0.000000
vn 0.000000 -1.000000 0.000000
vn 0.000000 -1.000000 0.000000
vn 0.000000 -1.000000 0.000000
vn 0.000000 -1.000000 0.000000
vn 1.000000 0.000000 0.000000
vn 1.000000 0.000000 0.000000
vn 0.000000 1.000000 0.000000
vn 0.000000 1.000000 0.000000
vn -1.000000 0.000000 -0.000005
vn -1.000000 0.000000 -0.000005
vn 0.000000 -1.000000 -0.000001
vn 0.000000 -1.000000 0.000000
vn 1.000000 0.000000 0.000000
vn 1.000000 0.000000 0.000000
vn 0.000000 0.000000 1.000000
vn 0.000000 0.000000 1.000000
vn 0.000000 -1.000000 0.000000
vn 0.000000 -1.000000 0.000000
vn 0.000000 -1.000000 -0.000000
vn 0.000000 -1.000000 -0.000001
vn 0.000000 0.000000 -1.000000
vn 0.000000 0.000000 -1.000000
vn 0.000000 1.000000 0.000000
vn -0.000000 1.000000 0.000000
vn 0.000000 1.000000 0.000000
vn 0.000000 1.000000 0.000000
vn 0.000000 1.000000 0.000000
vn 0.000000 1.000000 0.000000
vn -0.000000 1.000000 0.000000
vn 0.000000 1.000000 0.000000
vn 0.000000 0.000000 1.000000
vn 0.000000 0.000000 1.000000
vn 0.000000 -1.000000 0.000000
vn 0.000000 -1.000000 -0.000000
vn 0.000000 -1.000000 -0.000000
vn 0.000000 -1.000000 -0.000000
vn 0.000000 -1.000000 -0.000000
vn 0.000000 -1.000000 -0.000000
vn 0.000000 -1.000000 -0.000000
vn 0.000000 -1.000000 0.000000
vn 0.000000 0.000000 -1.000000
vn 0.000000 0.000000 -1.000000
vn 0.000001 1.000000 0.000002
vn -0.000000 1.000000 0.000000
vn -0.000001 1.000000 0.000000
vn -0.000001 1.000000 0.000000
vn -0.000001 1.000000 0.000000
vn -0.000001 1.000000 0.000000
vn -0.000001 1.000000 0.000000
vn 0.000000 1.000000 0.000000
vn 1.000000 0.000000 0.000000
vn 1.000000 0.000000 0.000000
vn -0.000001 0.000000 1.000000
vn -0.000000 0.000000 1.000000
vn 1.000000 0.000000 0.000000
vn 1.000000 0.000000 0.000000
vn 1.000000 0.000000 0.000000
vn 1.000000 0.000000 0.000000
vn 1.000000 0.000000 0.000000
vn 1.000000 0.000000 0.000000
vn 1.000000 0.000000 0.000000
vn 1.000000 0.000000 0.000000
vn 1.000000 0.000000 0.000000
vn 1.000000 0.000000 0.000000
vn 1.000000 0.000000 0.000000
vn 1.000000 0.000000 0.000000
vn -1.000000 0.000000 0.000000
vn -1.000000 0.000000 0.000000
vn -1.000000 0.000000 0.000000
vn -1.000000 0.000000 0.000000
vn 1.000000 0.000000 0.000000
vn 1.000000 0.000000 0.000000
vn 0.000000 0.000000 -1.000000
vn 0.000000 0.000000 -1.000000
vn 0.000000 0.000000 -1.000000
vn 0.000000 0.000000 1.000000
vn 0.000000 0.000000 1.000000
vn 0.000000 0.000000 1.000000
vn 0.000000 0.000000 1.000000
vn 0.000000 0.000000 -1.000000
vn 0.000000 0.000000 -1.000000
vn 0.000000 0.000000 -1.000000
vn 0.000000 0.000000 -1.000000
vn 0.000000 0.000000 1.000000
vn 0.000000 0.000000 -1.000000
vn -1.000000 0.000000 -0.000000
vn -1.000000 0.000000 -0.000005
vn -1.000000 0.000000 0.000003
vn -1.000000 0.000000 0.000000
vn -1.000000 0.000000 0.000000
vn 1.000000 0.000000 -0.000000
vn 1.000000 0.000000 -0.000000
vn 1.000000 0.000000 -0.000000
vn 1.000000 0.000000 -0.000000
vn -1.000000 0.000000 0.000000
vn -1.000000 0.000000 0.000000
vn -1.000000 0.000000 0.000000
vn 0.000000 0.000000 1.000000
vn 0.000000 0.000000 1.000000
vn 0.000000 0.000000 1.000000
vn 0.000000 0.000000 1.000000
vn 0.000000 0.000000 1.000000
vn 0.000000 0.000000 1.000000
vn 0.000000 -1.000000 0.000000
vn 0.000000 -1.000000 0.000000
vn 0.000000 1.000000 0.000000
vn 0.000000 1.000000 0.000000
vn -0.000000 0.000000 -1.000000
vn -0.000000 0.000000 -1.000000
vn -0.000000 0.000000 -1.000000
vn -0.000000 0.000000 -1.000000
vn -0.000000 0.000000 -1.000000
vn -0.000001 0.000000 1.000000
vn -0.000001 0.000000 1.000000
vn -0.000001 0.000000 1.000000
vn -0.000001 0.000000 1.000000
vn -0.000001 0.000000 1.000000
vn 0.000000 -1.000000 0.000000
vn 0.000000 -1.000000 0.000000
vn 0.000000 1.000000 0.000000
vn 0.000000 1.000000 0.000000
vn -0.000001 0.000000 -1.000000
vn -0.000001 0.000000 -1.000000
vn -0.000001 0.000000 -1.000000
vn -0.000001 0.000000 -1.000000
vn -0.000001 0.000000 -1.000000
vn 0.000000 -1.000000 0.000000
vn 0.000000 -1.000000 0.000000
vn -0.000001 0.000000 -1.000000
vn -0.000001 0.000000 -1.000000
vn -0.000001 0.000000 -1.000000
vn -0.000001 0.000000 -1.000000
vn -0.000001 0.000000 -1.000000
vn 0.000000 1.000000 0.000000
vn 0.000000 1.000000 0.000000
vn -0.000001 0.000000 1.000000
vn -0.000001 0.000000 1.000000
vn -0.000001 0.000000 1.000000
vn -0.000001 0.000000 1.000000
vn -0.000001 0.000000 1.000000
vn 0.000000 -1.000000 0.000000
vn 0.000000 -1.000000 0.000000
vn 0.000001 0.000000 -1.000000
vn 0.000001 0.000000 -1.000000
vn 0.000001 0.000000 -1.000000
vn 0.000001 0.000000 -1.000000
vn 0.000001 0.000000 -1.000000
vn 0.000000 1.000000 0.000000
vn 0.000000 1.000000 0.000000
vn 0.000000 0.000000 1.000000
vn 0.000000 0.000000 1.000000
vn 0.000000 0.000000 1.000000
vn 0.000000 0.000000 1.000000
vn 0.000000 0.000000 1.000000
s 1
g ammo_box polySurface88
usemtl lambert20SG
f 25/45/73 52/46/74 49/47/75 27/48/76
s 2
f 73/49/77 74/50/78 75/51/79 76/52/80
s 3
f 29/53/81 50/54/82 51/55/83 31/56/84
s 4
f 58/57/85 59/58/86 52/59/87 25/60/88
s 5
f 26/61/89 61/62/90 62/63/91 28/64/92
s 6
f 58/65/93 25/66/94 27/67/95 57/68/96
s off
f 98/69/97 97/70/98 99/71/99 100/72/100
s 7
f 39/73/101 38/74/102 42/75/103 43/76/104
s 8
f 37/77/105 40/78/106 44/79/107 41/80/108
s off
f 102/81/109 101/82/110 103/83/111 104/84/112
s 9
f 47/85/113 46/86/114 54/87/115 55/88/116
s 10
f 45/89/117 48/90/118 56/91/119 53/92/120
s 2
f 82/93/121 75/51/79 74/50/78 77/94/122 78/95/123 79/96/124 80/97/125 81/98/126
s 3
f 51/55/83 50/54/82 34/99/127 35/100/128
s 4
f 44/101/129 40/102/130 36/103/131 52/59/87 59/58/86 60/104/132 56/105/133 48/106/134
s 1
f 49/47/75 52/46/74 36/107/135 33/108/136
s 2
f 81/98/126 83/109/137 84/110/138 82/93/121
s 9
f 55/88/116 54/87/115 30/111/139 32/112/140
s 4
f 56/105/133 60/104/132 61/113/141 26/114/142
s 10
f 53/92/120 56/91/119 26/115/143 28/116/144
s 6
f 66/117/145 58/65/93 57/68/96 65/118/146
s 4
f 66/119/147 67/120/148 59/58/86 58/57/85
f 59/58/86 67/120/148 68/121/149 60/104/132
f 61/113/141 60/104/132 68/121/149 69/122/150
s 5
f 62/63/91 61/62/90 69/123/151 70/124/152
s 2
f 82/125/121 84/126/138 85/127/153 86/128/154
s off
f 71/129/155 72/130/156 64/131/157 63/132/158
s 2
f 76/133/80 75/134/79 87/135/159 88/136/160
s 6
f 31/137/161 66/117/145 65/118/146 29/138/162
s 4
f 31/139/163 51/140/164 67/120/148 66/119/147
f 67/120/148 51/140/164 35/141/165 39/142/166 43/143/167 47/144/168 55/145/169 68/121/149
f 69/122/150 68/121/149 55/145/169 32/146/170
s 5
f 70/124/152 69/123/151 32/147/171 30/148/172
s 2
f 86/149/154 85/150/153 89/151/173 90/152/174
f 92/153/175 93/154/176 94/155/177 95/156/178 87/157/159 86/149/154 90/152/174 91/158/179
f 88/159/160 87/157/159 95/156/178 96/160/180
s 1
f 27/48/76 49/47/75 74/161/181 73/162/182
s 6
f 57/68/96 27/67/95 73/163/183 76/164/184
s off
f 106/165/185 107/166/186 108/167/187 105/168/188
s 8
f 37/77/105 41/80/108 79/169/189 78/170/190
s off
f 110/171/191 111/172/192 112/173/193 109/174/194
s 10
f 45/89/117 53/92/120 81/175/195 80/176/196
s off
f 82/93/197 63/132/198 64/131/199 75/51/200
s 1
f 49/47/75 33/108/136 77/177/201 74/161/181
s 10
f 53/92/120 28/116/144 83/178/202 81/175/195
s 5
f 28/64/92 62/63/91 84/179/203 83/180/204
f 62/63/91 70/124/152 85/181/205 84/179/203
s off
f 71/129/206 63/132/207 82/125/208 86/128/209
f 64/131/210 72/130/211 87/135/212 75/134/213
s 6
f 65/118/146 57/68/96 76/164/184 88/182/214
s 5
f 70/124/152 30/148/172 89/183/215 85/181/205
s 9
f 30/111/139 54/87/115 90/184/216 89/185/217
f 54/87/115 46/86/114 91/186/218 90/184/216
s 7
f 42/75/103 38/74/102 93/187/219 92/188/220
s off
f 86/149/221 87/157/222 72/130/223 71/129/224
s 3
f 34/99/127 50/189/82 95/190/225 94/191/226
f 50/189/82 29/192/81 96/193/227 95/190/225
s 6
f 29/138/162 65/118/146 88/182/214 96/194/228
s off
f 97/70/229 35/100/230 34/99/231 94/191/232 99/71/233
s 4
f 39/142/166 35/141/165 97/195/234 98/196/235
s 2
f 94/155/177 93/154/176 100/197/236 99/198/237
s off
f 98/69/238 100/72/239 93/187/240 38/74/241 39/73/242
f 101/82/243 43/76/244 42/75/245 92/188/246 103/83/247
s 4
f 47/144/168 43/143/167 101/199/248 102/200/249
s 2
f 92/153/175 91/158/179 104/201/250 103/202/251
s off
f 102/81/252 104/84/253 91/186/254 46/86/255 47/85/256
s 4
f 36/103/131 40/102/130 106/203/257 105/204/258
s off
f 106/165/259 40/78/260 37/77/261 78/170/262 107/166/263
s 2
f 78/95/123 77/94/122 108/205/264 107/206/265
s off
f 105/168/266 108/167/267 77/177/268 33/108/269 36/107/270
s 4
f 44/101/129 48/106/134 110/207/271 109/208/272
s off
f 110/171/273 48/90/274 45/89/275 80/176/276 111/172/277
s 2
f 80/97/125 79/96/124 112/209/278 111/210/279
s off
f 109/174/280 112/173/281 79/169/282 41/80/283 44/79/284
