# file generated by UVMapper
# NumVerts/NumTVerts/NumVNormals/NumFacets   140/304/8/240
# NumGroups/NumMaterials/NumRegions   10/0/0
# x/y/color/ppu   512/256/0/50.00000000

v  5.00000000  0.81919998  0.00000000
v  5.00000000  1.02400005  0.00000000
v  2.50000000  0.81919998  4.33012676
v  2.50000000  1.02400005  4.33012676
v -2.50000000  0.81919998  4.33012676
v -2.50000000  1.02400005  4.33012676
v -5.00000000  0.81919998  0.00000000
v -5.00000000  1.02400005  0.00000000
v -2.50000000  0.81919998 -4.33012676
v -2.50000000  1.02400005 -4.33012676
v  2.50000000  0.81919998 -4.33012676
v  2.50000000  1.02400005 -4.33012676
v  0.00000000  1.02400005  0.00000000
v  0.00000000  0.81919998  0.00000000
v  4.00000000  0.61440003  0.00000000
v  4.00000000  0.81919998  0.00000000
v  2.00000000  0.61440003  3.46410203
v  2.00000000  0.81919998  3.46410203
v -2.00000000  0.61440003  3.46410203
v -2.00000000  0.81919998  3.46410203
v -4.00000000  0.61440003  0.00000000
v -4.00000000  0.81919998  0.00000000
v -2.00000000  0.61440003 -3.46410203
v -2.00000000  0.81919998 -3.46410203
v  2.00000000  0.61440003 -3.46410203
v  2.00000000  0.81919998 -3.46410203
v  0.00000000  0.81919998  0.00000000
v  0.00000000  0.61440003  0.00000000
v  3.20000005  0.40959999 -0.00000000
v  3.20000005  0.61440003 -0.00000000
v  1.60000002  0.40959999  2.77128100
v  1.60000002  0.61440003  2.77128100
v -1.60000002  0.40959999  2.77128100
v -1.60000002  0.61440003  2.77128100
v -3.20000005  0.40959999 -0.00000000
v -3.20000005  0.61440003 -0.00000000
v -1.60000002  0.40959999 -2.77128100
v -1.60000002  0.61440003 -2.77128100
v  1.60000002  0.40959999 -2.77128100
v  1.60000002  0.61440003 -2.77128100
v  0.00000000  0.61440003 -0.00000000
v  0.00000000  0.40959999 -0.00000000
v  2.55999994  0.20479999 -0.00000000
v  2.55999994  0.40959999 -0.00000000
v  1.27999997  0.20479999  2.21702504
v  1.27999997  0.40959999  2.21702504
v -1.27999997  0.20479999  2.21702504
v -1.27999997  0.40959999  2.21702504
v -2.55999994  0.20479999 -0.00000000
v -2.55999994  0.40959999 -0.00000000
v -1.27999997  0.20479999 -2.21702504
v -1.27999997  0.40959999 -2.21702504
v  1.27999997  0.20479999 -2.21702504
v  1.27999997  0.40959999 -2.21702504
v  0.00000000  0.40959999 -0.00000000
v  0.00000000  0.20479999 -0.00000000
v  2.04800010 -0.00000000  0.00000000
v  2.04800010  0.20479999  0.00000000
v  1.02400005 -0.00000000  1.77362001
v  1.02400005  0.20479999  1.77362001
v -1.02400005 -0.00000000  1.77362001
v -1.02400005  0.20479999  1.77362001
v -2.04800010 -0.00000000  0.00000000
v -2.04800010  0.20479999  0.00000000
v -1.02400005 -0.00000000 -1.77362001
v -1.02400005  0.20479999 -1.77362001
v  1.02400005 -0.00000000 -1.77362001
v  1.02400005  0.20479999 -1.77362001
v  0.00000000  0.20479999  0.00000000
v  0.00000000 -0.00000000  0.00000000
v  1.63839996 -0.20479999 -0.00000000
v  1.63839996 -0.00000000 -0.00000000
v  0.81919998 -0.20479999  1.41889596
v  0.81919998 -0.00000000  1.41889596
v -0.81919998 -0.20479999  1.41889596
v -0.81919998 -0.00000000  1.41889596
v -1.63839996 -0.20479999 -0.00000000
v -1.63839996 -0.00000000 -0.00000000
v -0.81919998 -0.20479999 -1.41889596
v -0.81919998 -0.00000000 -1.41889596
v  0.81919998 -0.20479999 -1.41889596
v  0.81919998 -0.00000000 -1.41889596
v  0.00000000 -0.00000000 -0.00000000
v  0.00000000 -0.20479999 -0.00000000
v  1.31071997 -0.40959999 -0.00000000
v  1.31071997 -0.20479999 -0.00000000
v  0.65535998 -0.40959999  1.13511705
v  0.65535998 -0.20479999  1.13511705
v -0.65535998 -0.40959999  1.13511705
v -0.65535998 -0.20479999  1.13511705
v -1.31071997 -0.40959999 -0.00000000
v -1.31071997 -0.20479999 -0.00000000
v -0.65535998 -0.40959999 -1.13511705
v -0.65535998 -0.20479999 -1.13511705
v  0.65535998 -0.40959999 -1.13511705
v  0.65535998 -0.20479999 -1.13511705
v  0.00000000 -0.20479999 -0.00000000
v  0.00000000 -0.40959999 -0.00000000
v  1.04857600 -0.61440003 -0.00000000
v  1.04857600 -0.40959999 -0.00000000
v  0.52428800 -0.61440003  0.90809399
v  0.52428800 -0.40959999  0.90809399
v -0.52428800 -0.61440003  0.90809399
v -0.52428800 -0.40959999  0.90809399
v -1.04857600 -0.61440003 -0.00000000
v -1.04857600 -0.40959999 -0.00000000
v -0.52428800 -0.61440003 -0.90809399
v -0.52428800 -0.40959999 -0.90809399
v  0.52428800 -0.61440003 -0.90809399
v  0.52428800 -0.40959999 -0.90809399
v  0.00000000 -0.40959999 -0.00000000
v  0.00000000 -0.61440003 -0.00000000
v  0.83886099 -0.81919998 -0.00000000
v  0.83886099 -0.61440003 -0.00000000
v  0.41942999 -0.81919998  0.72647500
v  0.41942999 -0.61440003  0.72647500
v -0.41942999 -0.81919998  0.72647500
v -0.41942999 -0.61440003  0.72647500
v -0.83886099 -0.81919998 -0.00000000
v -0.83886099 -0.61440003 -0.00000000
v -0.41942999 -0.81919998 -0.72647500
v -0.41942999 -0.61440003 -0.72647500
v  0.41942999 -0.81919998 -0.72647500
v  0.41942999 -0.61440003 -0.72647500
v  0.00000000 -0.61440003 -0.00000000
v  0.00000000 -0.81919998 -0.00000000
v  0.67108899 -1.02400005 -0.00000000
v  0.67108899 -0.81919998 -0.00000000
v  0.33554399 -1.02400005  0.58117998
v  0.33554399 -0.81919998  0.58117998
v -0.33554399 -1.02400005  0.58117998
v -0.33554399 -0.81919998  0.58117998
v -0.67108899 -1.02400005 -0.00000000
v -0.67108899 -0.81919998 -0.00000000
v -0.33554399 -1.02400005 -0.58117998
v -0.33554399 -0.81919998 -0.58117998
v  0.33554399 -1.02400005 -0.58117998
v  0.33554399 -0.81919998 -0.58117998
v  0.00000000 -0.81919998 -0.00000000
v  0.00000000 -1.02400005 -0.00000000

vt  0.49000001  0.22620881
vt  0.42971143  0.42741761
vt  0.50999999  0.53806591
vt  0.50999999  0.54758239
vt  0.42971143  0.57258242
vt  0.42971143  0.53806591
vt  0.42971143  0.54758239
vt  0.30913430  0.54758239
vt  0.30913430  0.53806591
vt  0.30913430  0.42741761
vt  0.30913430  0.57258242
vt  0.24884573  0.77379119
vt  0.22884572  0.53806591
vt  0.22884572  0.54758239
vt  0.24884573  0.22620881
vt  0.30913430  0.97500002
vt  0.12442286  0.54758239
vt  0.02000000  0.54758239
vt  0.02000000  0.53806591
vt  0.30913430  0.02500000
vt  0.91971147  0.53806591
vt  0.91971147  0.54758239
vt  0.79913431  0.54758239
vt  0.79913431  0.53806591
vt  0.42971143  0.02500000
vt  0.42971143  0.97500002
vt  0.49000001  0.77379119
vt  0.71884573  0.54758239
vt  0.61442286  0.54758239
vt  0.71884573  0.53806591
vt  0.41765371  0.61282414
vt  0.53088456  0.52854943
vt  0.53088456  0.53806591
vt  0.41765371  0.38717589
vt  0.32119200  0.38717589
vt  0.41765371  0.52854943
vt  0.41765371  0.53806591
vt  0.32119200  0.53806591
vt  0.32119200  0.52854943
vt  0.27296114  0.22620881
vt  0.32119200  0.61282414
vt  0.27296114  0.77379119
vt  0.20796117  0.52854943
vt  0.20796117  0.53806591
vt  0.12442286  0.52854943
vt  0.32119200  0.06524173
vt  0.32119200  0.93475831
vt  0.12442286  0.53806591
vt  0.04088456  0.53806591
vt  0.04088456  0.52854943
vt  0.41765371  0.93475831
vt  0.90765375  0.52854943
vt  0.90765375  0.53806591
vt  0.81119204  0.52854943
vt  0.81119204  0.53806591
vt  0.41765371  0.06524173
vt  0.46588457  0.22620881
vt  0.46588457  0.77379119
vt  0.69796115  0.53806591
vt  0.69796115  0.52854943
vt  0.61442286  0.53806591
vt  0.44659221  0.22620881
vt  0.44659221  0.77379119
vt  0.40800756  0.64501762
vt  0.54759222  0.51903296
vt  0.54759222  0.52854943
vt  0.40800756  0.35498244
vt  0.40800756  0.52854943
vt  0.33083817  0.52854943
vt  0.40800756  0.51903296
vt  0.33083817  0.51903296
vt  0.33083817  0.35498244
vt  0.33083817  0.64501762
vt  0.19125348  0.51903296
vt  0.19125348  0.52854943
vt  0.29225349  0.22620881
vt  0.33083817  0.09743517
vt  0.29225349  0.77379119
vt  0.33083817  0.90256482
vt  0.05759223  0.52854943
vt  0.05759223  0.51903296
vt  0.40800756  0.09743517
vt  0.40800756  0.90256482
vt  0.89800757  0.51903296
vt  0.89800757  0.52854943
vt  0.82083821  0.51903296
vt  0.82083821  0.52854943
vt  0.68125349  0.52854943
vt  0.68125349  0.51903296
vt  0.61442286  0.52854943
vt  0.43115833  0.22620881
vt  0.43115833  0.77379119
vt  0.56095833  0.51903296
vt  0.56095833  0.50951648
vt  0.40029061  0.32922772
vt  0.40029061  0.67077231
vt  0.33855513  0.67077231
vt  0.40029061  0.51903296
vt  0.40029061  0.50951648
vt  0.33855513  0.51903296
vt  0.33855513  0.50951648
vt  0.33855513  0.32922772
vt  0.30768737  0.22620881
vt  0.30768737  0.77379119
vt  0.17788737  0.50951648
vt  0.17788737  0.51903296
vt  0.12442286  0.51903296
vt  0.33855513  0.12318989
vt  0.07095835  0.51903296
vt  0.07095835  0.50951648
vt  0.40029061  0.12318989
vt  0.33855513  0.87681013
vt  0.40029061  0.87681013
vt  0.89029062  0.50951648
vt  0.89029062  0.51903296
vt  0.82855511  0.51903296
vt  0.82855511  0.50951648
vt  0.66788739  0.50951648
vt  0.66788739  0.51903296
vt  0.61442286  0.51903296
vt  0.41881126  0.22620881
vt  0.39411706  0.69137609
vt  0.57165128  0.50000000
vt  0.57165128  0.50951648
vt  0.39411706  0.30862394
vt  0.34472865  0.30862394
vt  0.34472865  0.69137609
vt  0.39411706  0.50000000
vt  0.39411706  0.50951648
vt  0.34472865  0.50951648
vt  0.34472865  0.50000000
vt  0.32003447  0.77379119
vt  0.16719447  0.50000000
vt  0.16719447  0.50951648
vt  0.12442286  0.50000000
vt  0.32003447  0.22620881
vt  0.34472865  0.14379367
vt  0.34472865  0.85620636
vt  0.12442286  0.50951648
vt  0.08165126  0.50951648
vt  0.08165126  0.50000000
vt  0.88411707  0.50000000
vt  0.88411707  0.50951648
vt  0.83472866  0.50000000
vt  0.83472866  0.50951648
vt  0.39411706  0.14379367
vt  0.39411706  0.85620636
vt  0.41881126  0.77379119
vt  0.65719450  0.50951648
vt  0.65719450  0.50000000
vt  0.61442286  0.50951648
vt  0.40893358  0.77379119
vt  0.61442286  0.50000000
vt  0.58020556  0.49048352
vt  0.58020556  0.50000000
vt  0.38917822  0.29214090
vt  0.38917822  0.70785910
vt  0.34966749  0.70785910
vt  0.38917822  0.49048352
vt  0.38917822  0.50000000
vt  0.34966749  0.50000000
vt  0.34966749  0.49048352
vt  0.34966749  0.29214090
vt  0.32991216  0.22620881
vt  0.15864015  0.49048352
vt  0.15864015  0.50000000
vt  0.32991216  0.77379119
vt  0.36942285  0.77379119
vt  0.34966749  0.83972335
vt  0.12442286  0.49048352
vt  0.09020558  0.50000000
vt  0.09020558  0.49048352
vt  0.34966749  0.16027670
vt  0.87917823  0.49048352
vt  0.83966750  0.49048352
vt  0.87917823  0.50000000
vt  0.83966750  0.50000000
vt  0.38917822  0.16027670
vt  0.40893358  0.22620881
vt  0.38917822  0.83972335
vt  0.64864016  0.50000000
vt  0.64864016  0.49048352
vt  0.40103143  0.22620881
vt  0.40103143  0.77379119
vt  0.38522714  0.72104555
vt  0.61442286  0.49048352
vt  0.58704901  0.49048352
vt  0.58704901  0.48096704
vt  0.38522714  0.27895451
vt  0.38522714  0.49048352
vt  0.38522714  0.48096704
vt  0.35361856  0.49048352
vt  0.35361856  0.48096704
vt  0.35361856  0.27895451
vt  0.33781430  0.22620881
vt  0.35361856  0.72104555
vt  0.15179670  0.48096704
vt  0.15179670  0.49048352
vt  0.12442286  0.48096704
vt  0.33781430  0.77379119
vt  0.09704903  0.49048352
vt  0.09704903  0.48096704
vt  0.35361856  0.17346311
vt  0.38522714  0.17346311
vt  0.35361856  0.82653689
vt  0.87522715  0.48096704
vt  0.84361857  0.48096704
vt  0.87522715  0.49048352
vt  0.84361857  0.49048352
vt  0.38522714  0.82653689
vt  0.64179671  0.49048352
vt  0.64179671  0.48096704
vt  0.38206628  0.26840538
vt  0.38206628  0.73159462
vt  0.61442286  0.48096704
vt  0.59252381  0.48096704
vt  0.59252381  0.47145057
vt  0.35677943  0.73159462
vt  0.38206628  0.47145057
vt  0.38206628  0.48096704
vt  0.35677943  0.48096704
vt  0.35677943  0.47145057
vt  0.35677943  0.26840538
vt  0.34413600  0.22620881
vt  0.14632194  0.47145057
vt  0.14632194  0.48096704
vt  0.12442286  0.47145057
vt  0.35677943  0.18401223
vt  0.34413600  0.77379119
vt  0.10252379  0.48096704
vt  0.10252379  0.47145057
vt  0.35677943  0.81598777
vt  0.38206628  0.81598777
vt  0.87206632  0.47145057
vt  0.84677947  0.47145057
vt  0.87206632  0.48096704
vt  0.84677947  0.48096704
vt  0.38206628  0.18401223
vt  0.39470974  0.22620881
vt  0.39470974  0.77379119
vt  0.63632196  0.47145057
vt  0.63632196  0.48096704
vt  0.38965234  0.22620881
vt  0.37953758  0.25996605
vt  0.38965234  0.77379119
vt  0.37953758  0.74003398
vt  0.59690362  0.46193409
vt  0.59690362  0.47145057
vt  0.36942285  0.22620881
vt  0.35930812  0.74003398
vt  0.37953758  0.46193409
vt  0.37953758  0.47145057
vt  0.35930812  0.47145057
vt  0.35930812  0.46193409
vt  0.35930812  0.25996605
vt  0.14194211  0.46193409
vt  0.14194211  0.47145057
vt  0.34919336  0.22620881
vt  0.35930812  0.19245155
vt  0.34919336  0.77379119
vt  0.12442286  0.46193409
vt  0.10690361  0.47145057
vt  0.10690361  0.46193409
vt  0.37953758  0.19245155
vt  0.35930812  0.80754846
vt  0.37953758  0.80754846
vt  0.86953759  0.46193409
vt  0.86953759  0.47145057
vt  0.84930813  0.47145057
vt  0.84930813  0.46193409
vt  0.63194209  0.46193409
vt  0.63194209  0.47145057
vt  0.61442286  0.47145057
vt  0.38560644  0.22620881
vt  0.37751463  0.25321460
vt  0.38560644  0.77379119
vt  0.37751463  0.74678546
vt  0.61442286  0.45241761
vt  0.61442286  0.46193409
vt  0.60040748  0.46193409
vt  0.60040748  0.45241761
vt  0.36133108  0.25321460
vt  0.36133108  0.74678546
vt  0.37751463  0.45241761
vt  0.37751463  0.46193409
vt  0.36133108  0.46193409
vt  0.36133108  0.45241761
vt  0.13843825  0.45241761
vt  0.13843825  0.46193409
vt  0.35323927  0.22620881
vt  0.35323927  0.77379119
vt  0.36133108  0.80079705
vt  0.12442286  0.45241761
vt  0.11040745  0.46193409
vt  0.11040745  0.45241761
vt  0.36133108  0.19920300
vt  0.37751463  0.80079705
vt  0.86751467  0.45241761
vt  0.86751467  0.46193409
vt  0.85133111  0.46193409
vt  0.85133111  0.45241761
vt  0.37751463  0.19920300
vt  0.62843829  0.45241761
vt  0.62843829  0.46193409

vn  0.00000000 -1.00000000  0.00000000
vn  0.00000000  1.00000000  0.00000000
vn  1.00000000  0.00000000  0.00000000
vn  0.50000000  0.00000000  0.86602497
vn -0.50000000  0.00000000  0.86602497
vn -1.00000000  0.00000000  0.00000000
vn -0.50000000  0.00000000 -0.86602497
vn  0.50000000  0.00000000 -0.86602497

g Cylinder02
s 2

’




ô










































































































f 1/1/1 3/2/1 14/249/1
f 2/27/2 13/168/2 4/5/2
s 1
f 1/61/3 2/29/3 3/3/4
f 2/29/3 4/4/4 3/3/4
s 2
f 3/2/1 5/10/1 14/249/1
f 4/5/2 13/168/2 6/11/2
s 1
f 3/6/4 4/7/4 6/8/5
f 3/6/4 6/8/5 5/9/5
s 2
f 5/10/1 7/15/1 14/249/1
f 6/11/2 13/168/2 8/12/2
s 1
f 5/13/5 6/14/5 7/48/6
f 6/14/5 8/17/6 7/48/6
s 2
f 7/15/1 9/20/1 14/249/1
f 8/12/2 13/168/2 10/16/2
s 1
f 7/48/6 8/17/6 10/18/7
f 7/48/6 10/18/7 9/19/7
s 2
f 9/20/1 11/25/1 14/249/1
f 10/16/2 13/168/2 12/26/2
s 1
f 9/21/7 10/22/7 11/24/8
f 10/22/7 12/23/8 11/24/8
s 2
f 11/25/1 1/1/1 14/249/1
f 12/26/2 13/168/2 2/27/2
s 1
f 11/30/8 12/28/8 2/29/3
f 11/30/8 2/29/3 1/61/3
g Duplicate00
s 2
f 15/57/1 17/34/1 28/249/1
f 16/58/2 27/168/2 18/31/2
s 1
f 15/90/3 16/61/3 17/32/4
f 16/61/3 18/33/4 17/32/4
s 2
f 17/34/1 19/35/1 28/249/1
f 18/31/2 27/168/2 20/41/2
s 1
f 17/36/4 18/37/4 20/38/5
f 17/36/4 20/38/5 19/39/5
s 2
f 19/35/1 21/40/1 28/249/1
f 20/41/2 27/168/2 22/42/2
s 1
f 19/43/5 20/44/5 21/45/6
f 20/44/5 22/48/6 21/45/6
s 2
f 21/40/1 23/46/1 28/249/1
f 22/42/2 27/168/2 24/47/2
s 1
f 21/45/6 22/48/6 24/49/7
f 21/45/6 24/49/7 23/50/7
s 2
f 23/46/1 25/56/1 28/249/1
f 24/47/2 27/168/2 26/51/2
s 1
f 23/52/7 24/53/7 25/54/8
f 24/53/7 26/55/8 25/54/8
s 2
f 25/56/1 15/57/1 28/249/1
f 26/51/2 27/168/2 16/58/2
s 1
f 25/60/8 26/59/8 16/61/3
f 25/60/8 16/61/3 15/90/3
g Duplicate01
s 2
f 29/62/1 31/67/1 42/249/1
f 30/63/2 41/168/2 32/64/2
s 1
f 29/120/3 30/90/3 31/65/4
f 30/90/3 32/66/4 31/65/4
s 2
f 31/67/1 33/72/1 42/249/1
f 32/64/2 41/168/2 34/73/2
s 1
f 31/70/4 32/68/4 34/69/5
f 31/70/4 34/69/5 33/71/5
s 2
f 33/72/1 35/76/1 42/249/1
f 34/73/2 41/168/2 36/78/2
s 1
f 33/74/5 34/75/5 35/107/6
f 34/75/5 36/45/6 35/107/6
s 2
f 35/76/1 37/77/1 42/249/1
f 36/78/2 41/168/2 38/79/2
s 1
f 35/107/6 36/45/6 38/80/7
f 35/107/6 38/80/7 37/81/7
s 2
f 37/77/1 39/82/1 42/249/1
f 38/79/2 41/168/2 40/83/2
s 1
f 37/84/7 38/85/7 39/86/8
f 38/85/7 40/87/8 39/86/8
s 2
f 39/82/1 29/62/1 42/249/1
f 40/83/2 41/168/2 30/63/2
s 1
f 39/89/8 40/88/8 30/90/3
f 39/89/8 30/90/3 29/120/3
g Duplicate02
s 2
f 43/91/1 45/95/1 56/249/1
f 44/92/2 55/168/2 46/96/2
s 1
f 43/151/3 44/120/3 45/94/4
f 44/120/3 46/93/4 45/94/4
s 2
f 45/95/1 47/102/1 56/249/1
f 46/96/2 55/168/2 48/97/2
s 1
f 45/99/4 46/98/4 48/100/5
f 45/99/4 48/100/5 47/101/5
s 2
f 47/102/1 49/103/1 56/249/1
f 48/97/2 55/168/2 50/104/2
s 1
f 47/105/5 48/106/5 49/139/6
f 48/106/5 50/107/6 49/139/6
s 2
f 49/103/1 51/108/1 56/249/1
f 50/104/2 55/168/2 52/112/2
s 1
f 49/139/6 50/107/6 52/109/7
f 49/139/6 52/109/7 51/110/7
s 2
f 51/108/1 53/111/1 56/249/1
f 52/112/2 55/168/2 54/113/2
s 1
f 51/114/7 52/115/7 53/117/8
f 52/115/7 54/116/8 53/117/8
s 2
f 53/111/1 43/91/1 56/249/1
f 54/113/2 55/168/2 44/92/2
s 1
f 53/118/8 54/119/8 44/120/3
f 53/118/8 44/120/3 43/151/3
g Duplicate03
s 2
f 57/121/1 59/125/1 70/249/1
f 58/148/2 69/168/2 60/122/2
s 1
f 57/153/3 58/151/3 59/123/4
f 58/151/3 60/124/4 59/123/4
s 2
f 59/125/1 61/126/1 70/249/1
f 60/122/2 69/168/2 62/127/2
s 1
f 59/128/4 60/129/4 62/130/5
f 59/128/4 62/130/5 61/131/5
s 2
f 61/126/1 63/136/1 70/249/1
f 62/127/2 69/168/2 64/132/2
s 1
f 61/133/5 62/134/5 63/135/6
f 62/134/5 64/139/6 63/135/6
s 2
f 63/136/1 65/137/1 70/249/1
f 64/132/2 69/168/2 66/138/2
s 1
f 63/135/6 64/139/6 66/140/7
f 63/135/6 66/140/7 65/141/7
s 2
f 65/137/1 67/146/1 70/249/1
f 66/138/2 69/168/2 68/147/2
s 1
f 65/142/7 66/143/7 67/144/8
f 66/143/7 68/145/8 67/144/8
s 2
f 67/146/1 57/121/1 70/249/1
f 68/147/2 69/168/2 58/148/2
s 1
f 67/150/8 68/149/8 58/151/3
f 67/150/8 58/151/3 57/153/3
g Duplicate04
s 2
f 71/179/1 73/156/1 84/249/1
f 72/152/2 83/168/2 74/157/2
s 1
f 71/186/3 72/153/3 73/154/4
f 72/153/3 74/155/4 73/154/4
s 2
f 73/156/1 75/163/1 84/249/1
f 74/157/2 83/168/2 76/158/2
s 1
f 73/159/4 74/160/4 76/161/5
f 73/159/4 76/161/5 75/162/5
s 2
f 75/163/1 77/164/1 84/249/1
f 76/158/2 83/168/2 78/167/2
s 1
f 75/165/5 76/166/5 77/170/6
f 76/166/5 78/135/6 77/170/6
s 2
f 77/164/1 79/173/1 84/249/1
f 78/167/2 83/168/2 80/169/2
s 1
f 77/170/6 78/135/6 80/171/7
f 77/170/6 80/171/7 79/172/7
s 2
f 79/173/1 81/178/1 84/249/1
f 80/169/2 83/168/2 82/180/2
s 1
f 79/174/7 80/176/7 81/175/8
f 80/176/7 82/177/8 81/175/8
s 2
f 81/178/1 71/179/1 84/249/1
f 82/180/2 83/168/2 72/152/2
s 1
f 81/182/8 82/181/8 72/153/3
f 81/182/8 72/153/3 71/186/3
g Duplicate05
s 2
f 85/183/1 87/189/1 98/249/1
f 86/184/2 97/168/2 88/185/2
s 1
f 85/215/3 86/186/3 87/188/4
f 86/186/3 88/187/4 87/188/4
s 2
f 87/189/1 89/194/1 98/249/1
f 88/185/2 97/168/2 90/196/2
s 1
f 87/191/4 88/190/4 90/192/5
f 87/191/4 90/192/5 89/193/5
s 2
f 89/194/1 91/195/1 98/249/1
f 90/196/2 97/168/2 92/200/2
s 1
f 89/197/5 90/198/5 91/199/6
f 90/198/5 92/170/6 91/199/6
s 2
f 91/195/1 93/203/1 98/249/1
f 92/200/2 97/168/2 94/205/2
s 1
f 91/199/6 92/170/6 94/201/7
f 91/199/6 94/201/7 93/202/7
s 2
f 93/203/1 95/204/1 98/249/1
f 94/205/2 97/168/2 96/210/2
s 1
f 93/206/7 94/208/7 95/207/8
f 94/208/7 96/209/8 95/207/8
s 2
f 95/204/1 85/183/1 98/249/1
f 96/210/2 97/168/2 86/184/2
s 1
f 95/212/8 96/211/8 86/186/3
f 95/212/8 86/186/3 85/215/3
g Duplicate06
s 2
f 99/239/1 101/213/1 112/249/1
f 100/240/2 111/168/2 102/214/2
s 1
f 99/273/3 100/215/3 101/217/4
f 100/215/3 102/216/4 101/217/4
s 2
f 101/213/1 103/223/1 112/249/1
f 102/214/2 111/168/2 104/218/2
s 1
f 101/219/4 102/220/4 104/221/5
f 101/219/4 104/221/5 103/222/5
s 2
f 103/223/1 105/224/1 112/249/1
f 104/218/2 111/168/2 106/229/2
s 1
f 103/225/5 104/226/5 105/227/6
f 104/226/5 106/199/6 105/227/6
s 2
f 105/224/1 107/228/1 112/249/1
f 106/229/2 111/168/2 108/232/2
s 1
f 105/227/6 106/199/6 108/230/7
f 105/227/6 108/230/7 107/231/7
s 2
f 107/228/1 109/238/1 112/249/1
f 108/232/2 111/168/2 110/233/2
s 1
f 107/234/7 108/236/7 109/235/8
f 108/236/7 110/237/8 109/235/8
s 2
f 109/238/1 99/239/1 112/249/1
f 110/233/2 111/168/2 100/240/2
s 1
f 109/241/8 110/242/8 100/215/3
f 109/241/8 100/215/3 99/273/3
g Duplicate07
s 2
f 113/243/1 115/244/1 126/249/1
f 114/245/2 125/168/2 116/246/2
s 1
f 113/279/3 114/273/3 115/247/4
f 114/273/3 116/248/4 115/247/4
s 2
f 115/244/1 117/255/1 126/249/1
f 116/246/2 125/168/2 118/250/2
s 1
f 115/251/4 116/252/4 118/253/5
f 115/251/4 118/253/5 117/254/5
s 2
f 117/255/1 119/258/1 126/249/1
f 118/250/2 125/168/2 120/260/2
s 1
f 117/256/5 118/257/5 119/261/6
f 118/257/5 120/227/6 119/261/6
s 2
f 119/258/1 121/259/1 126/249/1
f 120/260/2 125/168/2 122/265/2
s 1
f 119/261/6 120/227/6 122/262/7
f 119/261/6 122/262/7 121/263/7
s 2
f 121/259/1 123/264/1 126/249/1
f 122/265/2 125/168/2 124/266/2
s 1
f 121/267/7 122/268/7 123/270/8
f 122/268/7 124/269/8 123/270/8
s 2
f 123/264/1 113/243/1 126/249/1
f 124/266/2 125/168/2 114/245/2
s 1
f 123/271/8 124/272/8 114/273/3
f 123/271/8 114/273/3 113/279/3
g Duplicate08
s 2
f 127/274/1 129/275/1 140/249/1
f 128/276/2 139/168/2 130/277/2
s 1
f 127/278/3 128/279/3 129/281/4
f 128/279/3 130/280/4 129/281/4
s 2
f 129/275/1 131/282/1 140/249/1
f 130/277/2 139/168/2 132/283/2
s 1
f 129/284/4 130/285/4 132/286/5
f 129/284/4 132/286/5 131/287/5
s 2
f 131/282/1 133/290/1 140/249/1
f 132/283/2 139/168/2 134/291/2
s 1
f 131/288/5 132/289/5 133/293/6
f 132/289/5 134/261/6 133/293/6
s 2
f 133/290/1 135/296/1 140/249/1
f 134/291/2 139/168/2 136/292/2
s 1
f 133/293/6 134/261/6 136/294/7
f 133/293/6 136/294/7 135/295/7
s 2
f 135/296/1 137/302/1 140/249/1
f 136/292/2 139/168/2 138/297/2
s 1
f 135/298/7 136/299/7 137/301/8
f 136/299/7 138/300/8 137/301/8
s 2
f 137/302/1 127/274/1 140/249/1
f 138/297/2 139/168/2 128/276/2
s 1
f 137/303/8 138/304/8 128/279/3
f 137/303/8 128/279/3 127/278/3
